<mxfile host="app.diagrams.net" modified="2023-07-06T16:34:36.811Z" agent="Mozilla/5.0 (Windows NT 10.0; Win64; x64) AppleWebKit/537.36 (KHTML, like Gecko) Chrome/114.0.0.0 Safari/537.36 Edg/114.0.1823.67" etag="jAdzOlbe85t2UEl9ojzK" version="21.5.2" type="device">
  <diagram name="Page-1" id="JH9ZpMwY7iEy2QWGhZaP">
    <mxGraphModel dx="403" dy="244" grid="1" gridSize="10" guides="1" tooltips="1" connect="1" arrows="1" fold="1" page="1" pageScale="1" pageWidth="850" pageHeight="1100" math="0" shadow="0">
      <root>
        <mxCell id="0" />
        <mxCell id="1" parent="0" />
        <mxCell id="O20SZ3d7peppkT82bp2E-1" value="" style="rounded=0;whiteSpace=wrap;html=1;" vertex="1" parent="1">
          <mxGeometry x="325" y="220" width="50" height="40" as="geometry" />
        </mxCell>
        <mxCell id="O20SZ3d7peppkT82bp2E-2" value="" style="rounded=0;whiteSpace=wrap;html=1;fillColor=#FFFFFF;strokeColor=#000000;" vertex="1" parent="1">
          <mxGeometry x="375" y="220" width="50" height="40" as="geometry" />
        </mxCell>
        <mxCell id="O20SZ3d7peppkT82bp2E-3" value="" style="rounded=0;whiteSpace=wrap;html=1;fillColor=#fff2cc;strokeColor=#000000;" vertex="1" parent="1">
          <mxGeometry x="425" y="220" width="50" height="40" as="geometry" />
        </mxCell>
        <mxCell id="O20SZ3d7peppkT82bp2E-10" value="" style="shape=crossbar;whiteSpace=wrap;html=1;rounded=1;" vertex="1" parent="1">
          <mxGeometry x="375" y="190" width="112" height="20" as="geometry" />
        </mxCell>
        <mxCell id="O20SZ3d7peppkT82bp2E-11" value="offset" style="text;html=1;align=center;verticalAlign=middle;resizable=0;points=[];autosize=1;strokeColor=none;fillColor=none;" vertex="1" parent="1">
          <mxGeometry x="350" y="160" width="50" height="30" as="geometry" />
        </mxCell>
        <mxCell id="O20SZ3d7peppkT82bp2E-12" value="length" style="text;html=1;align=center;verticalAlign=middle;resizable=0;points=[];autosize=1;strokeColor=none;fillColor=none;" vertex="1" parent="1">
          <mxGeometry x="400" y="168" width="60" height="30" as="geometry" />
        </mxCell>
        <mxCell id="O20SZ3d7peppkT82bp2E-13" value="pcluster&lt;br&gt;x" style="rounded=0;whiteSpace=wrap;html=1;fillColor=none;strokeColor=#000000;" vertex="1" parent="1">
          <mxGeometry x="375" y="300" width="50" height="40" as="geometry" />
        </mxCell>
        <mxCell id="O20SZ3d7peppkT82bp2E-14" value="pcluster&lt;br&gt;x + 1" style="rounded=0;whiteSpace=wrap;html=1;fillColor=none;strokeColor=#000000;" vertex="1" parent="1">
          <mxGeometry x="425" y="300" width="50" height="40" as="geometry" />
        </mxCell>
        <mxCell id="O20SZ3d7peppkT82bp2E-15" value="" style="endArrow=classic;html=1;rounded=0;exitX=0;exitY=1;exitDx=0;exitDy=0;entryX=0;entryY=0;entryDx=0;entryDy=0;dashed=1;dashPattern=8 8;" edge="1" parent="1" source="O20SZ3d7peppkT82bp2E-2" target="O20SZ3d7peppkT82bp2E-13">
          <mxGeometry width="50" height="50" relative="1" as="geometry">
            <mxPoint x="440" y="280" as="sourcePoint" />
            <mxPoint x="490" y="230" as="targetPoint" />
          </mxGeometry>
        </mxCell>
        <mxCell id="O20SZ3d7peppkT82bp2E-16" value="" style="endArrow=classic;html=1;rounded=0;exitX=0;exitY=1;exitDx=0;exitDy=0;entryX=0;entryY=0;entryDx=0;entryDy=0;dashed=1;dashPattern=8 8;" edge="1" parent="1" source="O20SZ3d7peppkT82bp2E-3" target="O20SZ3d7peppkT82bp2E-14">
          <mxGeometry width="50" height="50" relative="1" as="geometry">
            <mxPoint x="440" y="280" as="sourcePoint" />
            <mxPoint x="490" y="230" as="targetPoint" />
          </mxGeometry>
        </mxCell>
        <mxCell id="O20SZ3d7peppkT82bp2E-17" value="" style="endArrow=classic;html=1;rounded=0;exitX=1;exitY=1;exitDx=0;exitDy=0;entryX=1;entryY=0;entryDx=0;entryDy=0;dashed=1;dashPattern=8 8;" edge="1" parent="1" target="O20SZ3d7peppkT82bp2E-14">
          <mxGeometry width="50" height="50" relative="1" as="geometry">
            <mxPoint x="525" y="260" as="sourcePoint" />
            <mxPoint x="490" y="230" as="targetPoint" />
          </mxGeometry>
        </mxCell>
        <mxCell id="O20SZ3d7peppkT82bp2E-22" value="" style="rounded=0;whiteSpace=wrap;html=1;fillColor=#fff2cc;strokeColor=#000000;" vertex="1" parent="1">
          <mxGeometry x="475" y="220" width="10" height="40" as="geometry" />
        </mxCell>
        <mxCell id="O20SZ3d7peppkT82bp2E-23" value="" style="rounded=0;whiteSpace=wrap;html=1;fillColor=none;strokeColor=#000000;" vertex="1" parent="1">
          <mxGeometry x="485" y="220" width="40" height="40" as="geometry" />
        </mxCell>
        <mxCell id="O20SZ3d7peppkT82bp2E-24" value="lcluster&lt;br&gt;0" style="text;html=1;align=center;verticalAlign=middle;resizable=0;points=[];autosize=1;strokeColor=none;fillColor=none;" vertex="1" parent="1">
          <mxGeometry x="320" y="260" width="60" height="40" as="geometry" />
        </mxCell>
        <mxCell id="O20SZ3d7peppkT82bp2E-25" value="lcluster&lt;br&gt;1" style="text;html=1;align=center;verticalAlign=middle;resizable=0;points=[];autosize=1;strokeColor=none;fillColor=none;" vertex="1" parent="1">
          <mxGeometry x="370" y="260" width="60" height="40" as="geometry" />
        </mxCell>
        <mxCell id="O20SZ3d7peppkT82bp2E-26" value="lcluster&lt;br&gt;2" style="text;html=1;align=center;verticalAlign=middle;resizable=0;points=[];autosize=1;strokeColor=none;fillColor=none;" vertex="1" parent="1">
          <mxGeometry x="420" y="260" width="60" height="40" as="geometry" />
        </mxCell>
        <mxCell id="O20SZ3d7peppkT82bp2E-27" value="lcluster&lt;br&gt;3" style="text;html=1;align=center;verticalAlign=middle;resizable=0;points=[];autosize=1;strokeColor=none;fillColor=none;" vertex="1" parent="1">
          <mxGeometry x="470" y="260" width="60" height="40" as="geometry" />
        </mxCell>
      </root>
    </mxGraphModel>
  </diagram>
</mxfile>
